<svg width="14" height="32" viewBox="0 0 14 32" fill="none" xmlns="http://www.w3.org/2000/svg">
<path d="M10.3478 18H3.65217C1.63513 18 0 19.619 0 21.6161V28.2457C0 30.2428 1.63513 31.8618 3.65217 31.8618H10.3478C12.3649 31.8618 14 30.2428 14 28.2457V21.6161C14 19.619 12.3649 18 10.3478 18Z" fill="#515855"/>
<path d="M7 27.9014C8.65685 27.9014 10 26.5714 10 24.9309C10 23.2904 8.65685 21.9604 7 21.9604C5.34315 21.9604 4 23.2904 4 24.9309C4 26.5714 5.34315 27.9014 7 27.9014Z" stroke="white"/>
<path d="M10.6514 22.2197C11.1557 22.2197 11.5645 21.8147 11.5645 21.3152C11.5645 20.8156 11.1557 20.4106 10.6514 20.4106C10.1471 20.4106 9.73828 20.8156 9.73828 21.3152C9.73828 21.8147 10.1471 22.2197 10.6514 22.2197Z" fill="white"/>
<path d="M10.3478 0H3.65217C1.63513 0 0 1.61899 0 3.61613V10.2457C0 12.2428 1.63513 13.8618 3.65217 13.8618H10.3478C12.3649 13.8618 14 12.2428 14 10.2457V3.61613C14 1.61899 12.3649 0 10.3478 0Z" fill="#B8951A"/>
<path d="M7 9.90137C8.65685 9.90137 10 8.57145 10 6.93091C10 5.29037 8.65685 3.96045 7 3.96045C5.34315 3.96045 4 5.29037 4 6.93091C4 8.57145 5.34315 9.90137 7 9.90137Z" stroke="white"/>
<path d="M10.6514 4.21973C11.1557 4.21973 11.5645 3.81475 11.5645 3.31519C11.5645 2.81562 11.1557 2.41064 10.6514 2.41064C10.1471 2.41064 9.73828 2.81562 9.73828 3.31519C9.73828 3.81475 10.1471 4.21973 10.6514 4.21973Z" fill="white"/>
</svg>
