<svg width="18" height="17" viewBox="0 0 18 17" fill="none" xmlns="http://www.w3.org/2000/svg">
<path d="M8.99954 3.24669L9.89832 2.28442L9.89948 2.28317L9.89951 2.2832C9.9008 2.2819 9.90212 2.28072 9.90339 2.27967L8.99954 3.24669ZM8.99954 3.24669L8.10181 2.28444L8.10183 2.28442L8.1006 2.2832C8.0993 2.28189 8.09797 2.2807 8.09668 2.27964C8.09567 2.27841 8.09454 2.27714 8.09329 2.27588C7.24754 1.42111 6.12228 0.95 4.92601 0.95C3.72938 0.95 2.60448 1.42111 1.75873 2.27588L1.75872 2.2759C0.0188546 4.03561 0.0141493 6.89425 1.74237 8.66111L8.99954 3.24669ZM9.2931 4.1214L9.29308 4.12138C9.29006 4.12441 9.28713 4.12669 9.28483 4.12831C9.28305 4.13079 9.28065 4.13381 9.27773 4.13674L9.27682 4.13764L9.27681 4.13763C9.25465 4.15868 9.227 4.17339 9.20725 4.1839C9.20262 4.18636 9.19842 4.18859 9.19483 4.19062L9.17025 4.14712L9.19542 4.19028C9.19278 4.19182 9.19064 4.19339 9.18665 4.1963C9.18509 4.19744 9.18325 4.19879 9.18098 4.20043C9.17448 4.20511 9.16418 4.21232 9.15136 4.21742M9.2931 4.1214L2.33907 8.11469C2.34025 8.11616 2.34107 8.11739 2.34158 8.1182C2.34196 8.11879 2.34227 8.11933 2.34242 8.1196C2.34257 8.11987 2.34256 8.11987 2.34231 8.11939L2.34226 8.11929C2.34194 8.11869 2.34079 8.11653 2.33935 8.11425C2.33889 8.11352 2.33836 8.11271 2.33775 8.11183M9.2931 4.1214L9.29427 4.12016L10.4855 2.84502C11.1783 2.14797 12.0971 1.76427 13.0741 1.76427C14.0542 1.76427 14.9757 2.14994 15.6685 2.85046C17.0992 4.29918 17.0992 6.65604 15.6685 8.10439L15.7041 8.13953L15.6687 8.10418C15.6659 8.10698 15.6636 8.10986 15.6619 8.11234C15.6595 8.11575 15.6581 8.11839 15.6578 8.11899C15.6576 8.1193 15.6575 8.11951 15.6574 8.11963L15.6558 8.11821L15.6555 8.11853L9.42629 15.0335L9.42611 15.0337C9.309 15.1651 9.15755 15.2351 8.99952 15.2351H8.99916C8.84159 15.2351 8.69046 15.1652 8.5722 15.0326L8.57203 15.0324L2.34515 8.11918M9.2931 4.1214L2.32905 8.10582M9.15136 4.21742C9.10321 4.23705 9.0519 4.24816 8.99952 4.24816C8.94704 4.24816 8.89563 4.23701 8.8474 4.21731C8.83461 4.21217 8.82439 4.20493 8.81825 4.20051C8.81697 4.1996 8.81584 4.19878 8.81482 4.19805C8.80972 4.19437 8.80754 4.19279 8.80503 4.19144L8.8042 4.19099L8.8042 4.19098C8.80064 4.18897 8.79663 4.1868 8.79227 4.18445C8.77226 4.17366 8.74512 4.15902 8.72253 4.13791L8.72129 4.13676L8.72131 4.13674C8.7183 4.13373 8.71589 4.13068 8.71406 4.1281C8.7123 4.12686 8.71034 4.12537 8.70838 4.12365L8.70456 4.12031L8.70475 4.12013L7.51779 2.84785C6.82468 2.14903 5.90481 1.76427 4.92601 1.76427C3.94591 1.76427 3.02477 2.14993 2.33126 2.85048C0.899453 4.29919 0.899465 6.65603 2.33125 8.10402L2.32929 8.10596C2.33057 8.10669 2.33386 8.10859 2.33775 8.11183M9.15136 4.21742C9.15145 4.21739 9.15154 4.21735 9.15163 4.21731L9.13273 4.17102L9.15109 4.21753C9.15118 4.21749 9.15127 4.21746 9.15136 4.21742ZM2.33775 8.11183C2.33612 8.10949 2.33392 8.10669 2.33105 8.10382L2.32905 8.10582M2.33775 8.11183C2.34009 8.11378 2.34266 8.11622 2.34515 8.11918M2.32905 8.10582L2.32889 8.10573C2.32787 8.10514 2.32824 8.10534 2.32904 8.10583L2.29569 8.13917L2.32905 8.10582ZM2.34515 8.11918L2.34427 8.11821L2.30712 8.15167L2.34781 8.12261C2.34694 8.1214 2.34605 8.12026 2.34515 8.11918ZM13.0741 0.95C11.8779 0.95 10.7527 1.42107 9.90691 2.27579L16.2588 8.65998C17.9845 6.89339 17.9795 4.03525 16.2418 2.27592L16.2417 2.27588C15.3956 1.42111 14.2707 0.95 13.0741 0.95ZM10.0265 15.5791L16.2546 8.66528L1.74569 8.66513L1.74604 8.66551L7.97183 15.5777C7.97184 15.5777 7.97185 15.5777 7.97186 15.5777C8.24194 15.881 8.60707 16.0498 8.9988 16.0498H8.99881H8.99882H8.99883H8.99884H8.99884H8.99885H8.99886H8.99887H8.99887H8.99888H8.99889H8.9989H8.99891H8.99892H8.99892H8.99893H8.99894H8.99895H8.99896H8.99896H8.99897H8.99898H8.99899H8.99899H8.999H8.99901H8.99902H8.99903H8.99903H8.99904H8.99905H8.99906H8.99907H8.99907H8.99908H8.99909H8.9991H8.99911H8.99911H8.99912H8.99913H8.99914H8.99914H8.99915H8.99916H8.99917H8.99917H8.99918H8.99919H8.9992H8.99921H8.99921H8.99922H8.99923H8.99924H8.99924H8.99925H8.99926H8.99927H8.99928H8.99928H8.99929H8.9993H8.99931H8.99931H8.99932H8.99933H8.99934H8.99935H8.99935H8.99936H8.99937H8.99938H8.99938H8.99939H8.9994H8.99941H8.99942H8.99942H8.99943H8.99944H8.99945H8.99946H8.99947H8.99947H8.99948H8.99949H8.9995H8.99951H8.99952C9.39152 16.0498 9.75662 15.8814 10.0264 15.5792C10.0264 15.5792 10.0264 15.5792 10.0265 15.5791ZM16.2062 2.31105C17.9262 4.05245 17.9297 6.88277 16.2187 8.62952L13.0741 1C14.2573 1 15.3694 1.46571 16.2062 2.31105ZM16.2544 8.66451C16.2544 8.66456 16.2543 8.66462 16.2543 8.66467L16.2544 8.66451Z" fill="#515855" stroke="#515855" stroke-width="0.1"/>
</svg>
