<svg width="15" height="34" viewBox="0 0 15 34" fill="none" xmlns="http://www.w3.org/2000/svg">
<path d="M14.4805 19.4336L11.6367 18.7773C11.3359 18.6953 11.0078 18.8594 10.8711 19.1602L9.55859 22.2227C9.44922 22.4961 9.53125 22.7969 9.75 22.9883L11.418 24.3555C10.4336 26.4336 8.71094 28.1836 6.57812 29.1953L5.21094 27.5273C5.01953 27.3086 4.71875 27.2266 4.44531 27.3359L1.38281 28.6484C1.08203 28.7852 0.945312 29.1133 1 29.4141L1.65625 32.2578C1.73828 32.5586 1.98438 32.75 2.3125 32.75C9.3125 32.75 15 27.0898 15 20.0625C15 19.7617 14.7812 19.5156 14.4805 19.4336Z" fill="#515855"/>
<path d="M14.4805 1.43359L11.6367 0.777344C11.3359 0.695312 11.0078 0.859375 10.8711 1.16016L9.55859 4.22266C9.44922 4.49609 9.53125 4.79688 9.75 4.98828L11.418 6.35547C10.4336 8.43359 8.71094 10.1836 6.57812 11.1953L5.21094 9.52734C5.01953 9.30859 4.71875 9.22656 4.44531 9.33594L1.38281 10.6484C1.08203 10.7852 0.945312 11.1133 1 11.4141L1.65625 14.2578C1.73828 14.5586 1.98438 14.75 2.3125 14.75C9.3125 14.75 15 9.08984 15 2.0625C15 1.76172 14.7812 1.51562 14.4805 1.43359Z" fill="#B8951A"/>
</svg>
