<svg width="14" height="34" viewBox="0 0 14 34" fill="none" xmlns="http://www.w3.org/2000/svg">
<path d="M13.7266 23.9727C13.0977 24.4648 12.3047 25.0664 9.51562 27.0898C8.96875 27.5 7.95703 28.4023 7 28.4023C6.01562 28.4023 5.03125 27.5 4.45703 27.0898C1.66797 25.0664 0.875 24.4648 0.246094 23.9727C0.136719 23.8906 0 23.9727 0 24.1094V29.6875C0 30.4258 0.574219 31 1.3125 31H12.6875C13.3984 31 14 30.4258 14 29.6875V24.1094C14 23.9727 13.8359 23.8906 13.7266 23.9727ZM7 27.5C7.62891 27.5273 8.53125 26.707 8.99609 26.3789C12.6328 23.7539 12.9062 23.5078 13.7266 22.8516C13.8906 22.7422 14 22.5508 14 22.332V21.8125C14 21.1016 13.3984 20.5 12.6875 20.5H1.3125C0.574219 20.5 0 21.1016 0 21.8125V22.332C0 22.5508 0.0820312 22.7422 0.246094 22.8516C1.06641 23.5078 1.33984 23.7539 4.97656 26.3789C5.44141 26.707 6.34375 27.5273 7 27.5Z" fill="#515855"/>
<path d="M13.7266 5.97266C13.0977 6.46484 12.3047 7.06641 9.51562 9.08984C8.96875 9.5 7.95703 10.4023 7 10.4023C6.01562 10.4023 5.03125 9.5 4.45703 9.08984C1.66797 7.06641 0.875 6.46484 0.246094 5.97266C0.136719 5.89062 0 5.97266 0 6.10938V11.6875C0 12.4258 0.574219 13 1.3125 13H12.6875C13.3984 13 14 12.4258 14 11.6875V6.10938C14 5.97266 13.8359 5.89062 13.7266 5.97266ZM7 9.5C7.62891 9.52734 8.53125 8.70703 8.99609 8.37891C12.6328 5.75391 12.9062 5.50781 13.7266 4.85156C13.8906 4.74219 14 4.55078 14 4.33203V3.8125C14 3.10156 13.3984 2.5 12.6875 2.5H1.3125C0.574219 2.5 0 3.10156 0 3.8125V4.33203C0 4.55078 0.0820312 4.74219 0.246094 4.85156C1.06641 5.50781 1.33984 5.75391 4.97656 8.37891C5.44141 8.70703 6.34375 9.52734 7 9.5Z" fill="#B8951A"/>
</svg>
